<?xml version="1.0" encoding="UTF-8"?>
<svg xmlns="http://www.w3.org/2000/svg" viewBox="0 0 1200 1600" role="img">
<rect x="0" y="0" width="1200" height="1600" rx="0" fill="#e8f7fb"/>
<defs><linearGradient id="sky" x1="0" y1="0" x2="0" y2="1">
  <stop offset="0" stop-color="#aee3f2"/><stop offset="1" stop-color="#e8f7fb"/>
  </linearGradient></defs><rect x="0" y="0" width="1200" height="1600" rx="0" fill="url(#sky)"/>
<circle cx="980" cy="220" r="126" fill="rgba(255,214,120,0.35)"/><circle cx="980" cy="220" r="100" fill="#ffd678"/>
<g transform="translate(280 260) scale(1)"><ellipse cx="0" cy="0" rx="110" ry="46" fill="#ffffff"/><ellipse cx="-70" cy="14" rx="70" ry="34" fill="#ffffff"/><ellipse cx="80" cy="12" rx="80" ry="36" fill="#ffffff"/></g>
<path d="M0 950 Q 360 790 744 950 T 1200 890 V1600 H0 Z" fill="#8fb97f" /><path d="M0 1080 Q 504 910 1200 1060 V1600 H0 Z" fill="#5d8f57" />
<path d="M80 1520 Q 400 1400 640 1470 T 1140 1420" fill="none" stroke="#d9cbb2" stroke-width="70" stroke-linecap="round"/>
<g transform="translate(380 1400) scale(1.2 1.2)"><path d="M-90 30 a90 64 0 0 1 180 0 z" fill="#5d8f57" /><path d="M-64 30 a64 44 0 0 1 128 0 z" fill="#7fae6f" /><path d="M-30 30 a30 22 0 0 1 60 0 z" fill="#5d8f57" /><ellipse cx="-58" cy="46" rx="22" ry="14" fill="#8fb97f"/><ellipse cx="58" cy="46" rx="22" ry="14" fill="#8fb97f"/><circle cx="104" cy="8" r="26" fill="#8fb97f"/><circle cx="112" cy="2" r="5" fill="#31441f"/><path d="M96 20 q10 8 20 4" fill="none" stroke="#31441f" stroke-width="4" stroke-linecap="round"/><rect x="-96" y="26" width="16" height="12" rx="6" fill="#8fb97f"/></g>
<g transform="translate(860 1280) scale(-1.1 1.1)"><ellipse cx="0" cy="40" rx="62" ry="84" fill="#cbb9d9"/><circle cx="0" cy="-60" r="46" fill="#d9cbe6"/><ellipse cx="-22" cy="-128" rx="14" ry="52" fill="#d9cbe6"/><ellipse cx="22" cy="-128" rx="14" ry="52" fill="#d9cbe6"/><ellipse cx="-22" cy="-126" rx="7" ry="38" fill="#eaa9b8"/><ellipse cx="22" cy="-126" rx="7" ry="38" fill="#eaa9b8"/><circle cx="-14" cy="-66" r="6" fill="#463a54"/><circle cx="14" cy="-66" r="6" fill="#463a54"/><circle cx="0" cy="-46" r="7" fill="#eaa9b8"/><ellipse cx="40" cy="116" rx="26" ry="18" fill="#d9cbe6"/></g>
<rect x="80" y="120" width="1040" height="240" rx="32" fill="rgba(255,250,241,0.94)"/>
<text x="600" y="225" text-anchor="middle" font-family="'Baloo 2', 'Trebuchet MS', sans-serif" font-weight="800" font-size="86" fill="#2c2547">The Tortoise and the</text>
<text x="600" y="315" text-anchor="middle" font-family="'Baloo 2', 'Trebuchet MS', sans-serif" font-weight="800" font-size="86" fill="#2c2547">Hare</text>
</svg>
