<?xml version="1.0" encoding="UTF-8"?>
<svg xmlns="http://www.w3.org/2000/svg" viewBox="0 0 1200 1600" role="img">
<rect x="0" y="0" width="1200" height="1600" rx="0" fill="#faf3e7"/>
<defs><linearGradient id="sky" x1="0" y1="0" x2="0" y2="1">
  <stop offset="0" stop-color="#aee3f2"/><stop offset="1" stop-color="#e8f7fb"/>
  </linearGradient></defs><rect x="0" y="0" width="1200" height="1600" rx="0" fill="url(#sky)"/>
<g transform="translate(280 240) scale(1.1)"><ellipse cx="0" cy="0" rx="110" ry="46" fill="#ffffff"/><ellipse cx="-70" cy="14" rx="70" ry="34" fill="#ffffff"/><ellipse cx="80" cy="12" rx="80" ry="36" fill="#ffffff"/></g>
<path d="M0 950 Q 360 790 744 950 T 1200 890 V1600 H0 Z" fill="#8fb97f" /><path d="M0 1080 Q 504 910 1200 1060 V1600 H0 Z" fill="#5d8f57" />
<g transform="translate(820 1200) rotate(-12) scale(1.1)"><ellipse cx="-34" cy="96" rx="22" ry="44" fill="#b5773d"/><ellipse cx="34" cy="96" rx="22" ry="44" fill="#b5773d"/><ellipse cx="-62" cy="6" rx="40" ry="20" fill="#b5773d"/><ellipse cx="62" cy="6" rx="40" ry="20" fill="#b5773d"/><ellipse cx="0" cy="30" rx="52" ry="70" fill="#b5773d"/><circle cx="0" cy="-60" r="52" fill="#b5773d"/><path d="M-30 -78 Q0 -96 30 -78" fill="none" stroke="#fff6ec" stroke-width="8" stroke-linecap="round"/><circle cx="-18" cy="-62" r="7" fill="#4a3221"/><circle cx="18" cy="-62" r="7" fill="#4a3221"/><path d="M-16 -40 Q0 -26 16 -40" fill="none" stroke="#4a3221" stroke-width="6" stroke-linecap="round"/><circle cx="0" cy="4" r="8" fill="#e2555f"/><circle cx="0" cy="38" r="8" fill="#e2555f"/><path d="M-96 6 h24 M72 6 h24" fill="none" stroke="#fff6ec" stroke-width="8" stroke-linecap="round"/></g>
<g transform="translate(300 1340) scale(0.95)"><ellipse cx="0" cy="60" rx="84" ry="96" fill="#a9713f"/><circle cx="0" cy="-52" r="66" fill="#a9713f"/><circle cx="-48" cy="-96" r="24" fill="#a9713f"/><circle cx="48" cy="-96" r="24" fill="#a9713f"/><circle cx="-48" cy="-96" r="12" fill="#d9a86f"/><circle cx="48" cy="-96" r="12" fill="#d9a86f"/><ellipse cx="0" cy="-32" rx="30" ry="22" fill="#d9a86f"/><circle cx="0" cy="-42" r="9" fill="#4a3221"/><circle cx="-22" cy="-62" r="7" fill="#3a281c"/><circle cx="22" cy="-62" r="7" fill="#3a281c"/><path d="M-12 -22 Q0 -12 12 -22" fill="none" stroke="#4a3221" stroke-width="5" stroke-linecap="round"/><ellipse cx="-80" cy="40" rx="20" ry="46" fill="#a9713f"/><ellipse cx="80" cy="40" rx="20" ry="46" fill="#a9713f"/><ellipse cx="-38" cy="148" rx="26" ry="18" fill="#a9713f"/><ellipse cx="38" cy="148" rx="26" ry="18" fill="#a9713f"/></g>
<path d="M600 1480 q6 -34 14 0 q8 -26 16 0 q8 -34 16 0 z" fill="#5d8f57" />
</svg>
