<?xml version="1.0" encoding="UTF-8"?>
<svg xmlns="http://www.w3.org/2000/svg" viewBox="0 0 1200 1600" role="img">
<rect x="0" y="0" width="1200" height="1600" rx="0" fill="#faf3e7"/>
<defs><linearGradient id="sky" x1="0" y1="0" x2="0" y2="1">
  <stop offset="0" stop-color="#9fc7d8"/><stop offset="1" stop-color="#d8ecf2"/>
  </linearGradient></defs><rect x="0" y="0" width="1200" height="1600" rx="0" fill="url(#sky)"/>
<path d="M0 950 Q 360 790 744 950 T 1200 890 V1600 H0 Z" fill="#8fb97f" /><path d="M0 1080 Q 504 910 1200 1060 V1600 H0 Z" fill="#5d8f57" />
<path d="M0 1180 Q 300 1140 600 1180 T 1200 1180 V1600 H0 Z" fill="#7fb3d5" /><path d="M120 1300 q60 -18 120 0 M520 1380 q60 -18 120 0 M860 1290 q60 -18 120 0" fill="none" stroke="#a9d2e8" stroke-width="10" stroke-linecap="round"/>
<g transform="translate(380 1080) rotate(-6) scale(1)"><ellipse cx="-34" cy="96" rx="22" ry="44" fill="#b5773d"/><ellipse cx="34" cy="96" rx="22" ry="44" fill="#b5773d"/><ellipse cx="-62" cy="6" rx="40" ry="20" fill="#b5773d"/><ellipse cx="62" cy="6" rx="40" ry="20" fill="#b5773d"/><ellipse cx="0" cy="30" rx="52" ry="70" fill="#b5773d"/><circle cx="0" cy="-60" r="52" fill="#b5773d"/><path d="M-30 -78 Q0 -96 30 -78" fill="none" stroke="#fff6ec" stroke-width="8" stroke-linecap="round"/><circle cx="-18" cy="-62" r="7" fill="#4a3221"/><circle cx="18" cy="-62" r="7" fill="#4a3221"/><path d="M-16 -40 Q0 -26 16 -40" fill="none" stroke="#4a3221" stroke-width="6" stroke-linecap="round"/><circle cx="0" cy="4" r="8" fill="#e2555f"/><circle cx="0" cy="38" r="8" fill="#e2555f"/><path d="M-96 6 h24 M72 6 h24" fill="none" stroke="#fff6ec" stroke-width="8" stroke-linecap="round"/></g>
<g transform="translate(820 1280) scale(-1.15 1.15)"><ellipse cx="0" cy="54" rx="70" ry="80" fill="#d97a3f"/><ellipse cx="0" cy="96" rx="44" ry="40" fill="#f6e3cf"/><circle cx="0" cy="-44" r="56" fill="#e2884a"/><polygon points="-50,-76 -34,-128 -10,-74" fill="#d97a3f"/><polygon points="50,-76 34,-128 10,-74" fill="#d97a3f"/><polygon points="-44,-80 -34,-112 -18,-76" fill="#5c3a2e"/><polygon points="44,-80 34,-112 18,-76" fill="#5c3a2e"/><ellipse cx="0" cy="-22" rx="26" ry="20" fill="#f6e3cf"/><circle cx="0" cy="-28" r="8" fill="#4a2c1f"/><circle cx="-20" cy="-52" r="7" fill="#3a281c"/><circle cx="20" cy="-52" r="7" fill="#3a281c"/><path d="M-84 70 q-60 -6 -58 56 q44 18 78 -18 z" fill="#e2884a" /><path d="M-118 116 q26 12 38 6" fill="none" stroke="#f6e3cf" stroke-width="16" stroke-linecap="round"/></g>
</svg>
