<?xml version="1.0" encoding="UTF-8"?>
<svg xmlns="http://www.w3.org/2000/svg" viewBox="0 0 1200 1600" role="img">
<rect x="0" y="0" width="1200" height="1600" rx="0" fill="#faf3e7"/>
<rect x="0" y="0" width="1200" height="1600" rx="0" fill="#fbeed3"/>
<rect x="0" y="850" width="1200" height="750" rx="0" fill="#f2d9b8"/>
<rect x="60" y="1400" width="1080" height="60" rx="20" fill="#a9713f"/>
<g transform="translate(280 1400) scale(2.6)"><rect x="-52" y="-170" width="104" height="22" rx="10" fill="#8a5a36"/><rect x="-52" y="-150" width="14" height="110" rx="6" fill="#8a5a36"/><rect x="38" y="-150" width="14" height="110" rx="6" fill="#8a5a36"/><rect x="-60" y="-46" width="120" height="20" rx="8" fill="#8a5a36"/><rect x="-52" y="-26" width="14" height="70" rx="6" fill="#8a5a36"/><rect x="38" y="-26" width="14" height="70" rx="6" fill="#8a5a36"/><rect x="-48" y="-58" width="96" height="16" rx="8" fill="#e2b07a"/></g>
<g transform="translate(640 1400) scale(2.1)"><rect x="-52" y="-170" width="104" height="22" rx="10" fill="#a9713f"/><rect x="-52" y="-150" width="14" height="110" rx="6" fill="#a9713f"/><rect x="38" y="-150" width="14" height="110" rx="6" fill="#a9713f"/><rect x="-60" y="-46" width="120" height="20" rx="8" fill="#a9713f"/><rect x="-52" y="-26" width="14" height="70" rx="6" fill="#a9713f"/><rect x="38" y="-26" width="14" height="70" rx="6" fill="#a9713f"/><rect x="-48" y="-58" width="96" height="16" rx="8" fill="#e2b07a"/></g>
<g transform="translate(950 1400) scale(1.6)"><rect x="-52" y="-170" width="104" height="22" rx="10" fill="#c98d54"/><rect x="-52" y="-150" width="14" height="110" rx="6" fill="#c98d54"/><rect x="38" y="-150" width="14" height="110" rx="6" fill="#c98d54"/><rect x="-60" y="-46" width="120" height="20" rx="8" fill="#c98d54"/><rect x="-52" y="-26" width="14" height="70" rx="6" fill="#c98d54"/><rect x="38" y="-26" width="14" height="70" rx="6" fill="#c98d54"/><rect x="-48" y="-58" width="96" height="16" rx="8" fill="#e2b07a"/></g>
<g transform="translate(950 1290) scale(1.05 1.05)"><polygon points="-58,120 58,120 30,6 -30,6" fill="#c96f4a"/><circle cx="0" cy="-40" r="46" fill="#f6d7b8"/><path d="M-46 -52 Q-52 -100 0 -100 Q52 -100 46 -52 Q46 -28 34 -50 Q10 -74 -20 -58 Q-40 -44 -46 -52 Z" fill="#f2c14e" /><circle cx="-34" cy="-20" r="16" fill="#f2c14e"/><circle cx="34" cy="-20" r="16" fill="#f2c14e"/><circle cx="-14" cy="-42" r="5" fill="#4a3221"/><circle cx="14" cy="-42" r="5" fill="#4a3221"/><path d="M-10 -22 Q0 -14 10 -22" fill="none" stroke="#a65b3a" stroke-width="4" stroke-linecap="round"/><ellipse cx="-52" cy="40" rx="12" ry="40" fill="#f6d7b8"/><ellipse cx="52" cy="40" rx="12" ry="40" fill="#f6d7b8"/><ellipse cx="-26" cy="128" rx="18" ry="10" fill="#7a5236"/><ellipse cx="26" cy="128" rx="18" ry="10" fill="#7a5236"/></g>
<path d="M870 1400 l60 60 M1030 1400 l-60 60" fill="none" stroke="#8a5a36" stroke-width="12" stroke-linecap="round"/>
</svg>
