<?xml version="1.0" encoding="UTF-8"?>
<svg xmlns="http://www.w3.org/2000/svg" viewBox="0 0 1200 1600" role="img">
<rect x="0" y="0" width="1200" height="1600" rx="0" fill="#faf3e7"/>
<defs><linearGradient id="sky" x1="0" y1="0" x2="0" y2="1">
  <stop offset="0" stop-color="#aee3f2"/><stop offset="1" stop-color="#e8f7fb"/>
  </linearGradient></defs><rect x="0" y="0" width="1200" height="1600" rx="0" fill="url(#sky)"/>
<g transform="translate(300 240) scale(1)"><ellipse cx="0" cy="0" rx="110" ry="46" fill="#ffffff"/><ellipse cx="-70" cy="14" rx="70" ry="34" fill="#ffffff"/><ellipse cx="80" cy="12" rx="80" ry="36" fill="#ffffff"/></g>
<path d="M0 950 Q 360 790 744 950 T 1200 890 V1600 H0 Z" fill="#8fb97f" /><path d="M0 1080 Q 504 910 1200 1060 V1600 H0 Z" fill="#5d8f57" />
<g transform="translate(600 880) scale(0.9)"><rect x="-170" y="0" width="340" height="200" rx="12" fill="#e8c9a0"/><polygon points="-200,0 0,-160 200,0" fill="#9c3d54"/><rect x="-50" y="80" width="100" height="120" rx="12" fill="#6d4a30"/><rect x="-140" y="50" width="70" height="70" rx="10" fill="#aee3f2"/><rect x="70" y="50" width="70" height="70" rx="10" fill="#aee3f2"/><path d="M-140 85 h70 M-105 50 v70 M70 85 h70 M105 50 v70" fill="none" stroke="#6d4a30" stroke-width="6"/><rect x="90" y="-150" width="34" height="80" rx="6" fill="#7a5236"/></g>
<g transform="translate(300 1330) scale(1)"><ellipse cx="0" cy="60" rx="84" ry="96" fill="#a9713f"/><circle cx="0" cy="-52" r="66" fill="#a9713f"/><circle cx="-48" cy="-96" r="24" fill="#a9713f"/><circle cx="48" cy="-96" r="24" fill="#a9713f"/><circle cx="-48" cy="-96" r="12" fill="#d9a86f"/><circle cx="48" cy="-96" r="12" fill="#d9a86f"/><ellipse cx="0" cy="-32" rx="30" ry="22" fill="#d9a86f"/><circle cx="0" cy="-42" r="9" fill="#4a3221"/><circle cx="-22" cy="-62" r="7" fill="#3a281c"/><circle cx="22" cy="-62" r="7" fill="#3a281c"/><path d="M-12 -22 Q0 -12 12 -22" fill="none" stroke="#4a3221" stroke-width="5" stroke-linecap="round"/><ellipse cx="-80" cy="40" rx="20" ry="46" fill="#a9713f"/><ellipse cx="80" cy="40" rx="20" ry="46" fill="#a9713f"/><ellipse cx="-38" cy="148" rx="26" ry="18" fill="#a9713f"/><ellipse cx="38" cy="148" rx="26" ry="18" fill="#a9713f"/></g>
<g transform="translate(560 1360) scale(0.85)"><ellipse cx="0" cy="60" rx="84" ry="96" fill="#c98d54"/><circle cx="0" cy="-52" r="66" fill="#c98d54"/><circle cx="-48" cy="-96" r="24" fill="#c98d54"/><circle cx="48" cy="-96" r="24" fill="#c98d54"/><circle cx="-48" cy="-96" r="12" fill="#d9a86f"/><circle cx="48" cy="-96" r="12" fill="#d9a86f"/><ellipse cx="0" cy="-32" rx="30" ry="22" fill="#d9a86f"/><circle cx="0" cy="-42" r="9" fill="#4a3221"/><circle cx="-22" cy="-62" r="7" fill="#3a281c"/><circle cx="22" cy="-62" r="7" fill="#3a281c"/><path d="M-12 -22 Q0 -12 12 -22" fill="none" stroke="#4a3221" stroke-width="5" stroke-linecap="round"/><ellipse cx="-80" cy="40" rx="20" ry="46" fill="#c98d54"/><ellipse cx="80" cy="40" rx="20" ry="46" fill="#c98d54"/><ellipse cx="-38" cy="148" rx="26" ry="18" fill="#c98d54"/><ellipse cx="38" cy="148" rx="26" ry="18" fill="#c98d54"/></g>
<g transform="translate(800 1390) scale(0.65)"><ellipse cx="0" cy="60" rx="84" ry="96" fill="#b5773d"/><circle cx="0" cy="-52" r="66" fill="#b5773d"/><circle cx="-48" cy="-96" r="24" fill="#b5773d"/><circle cx="48" cy="-96" r="24" fill="#b5773d"/><circle cx="-48" cy="-96" r="12" fill="#d9a86f"/><circle cx="48" cy="-96" r="12" fill="#d9a86f"/><ellipse cx="0" cy="-32" rx="30" ry="22" fill="#d9a86f"/><circle cx="0" cy="-42" r="9" fill="#4a3221"/><circle cx="-22" cy="-62" r="7" fill="#3a281c"/><circle cx="22" cy="-62" r="7" fill="#3a281c"/><path d="M-12 -22 Q0 -12 12 -22" fill="none" stroke="#4a3221" stroke-width="5" stroke-linecap="round"/><ellipse cx="-80" cy="40" rx="20" ry="46" fill="#b5773d"/><ellipse cx="80" cy="40" rx="20" ry="46" fill="#b5773d"/><ellipse cx="-38" cy="148" rx="26" ry="18" fill="#b5773d"/><ellipse cx="38" cy="148" rx="26" ry="18" fill="#b5773d"/></g>
<g transform="translate(1060 1150) scale(1.1)"><rect x="-12" y="-6" width="24" height="60" rx="8" fill="#6d4a30"/><polygon points="0,-220 85,-60 -85,-60" fill="#3c6b4f"/><polygon points="0,-160 70,-10 -70,-10" fill="#3c6b4f"/></g>
</svg>
