<?xml version="1.0" encoding="UTF-8"?>
<svg xmlns="http://www.w3.org/2000/svg" viewBox="0 0 1200 1600" role="img">
<rect x="0" y="0" width="1200" height="1600" rx="0" fill="#f6e3cf"/>
<defs><linearGradient id="sky" x1="0" y1="0" x2="0" y2="1">
  <stop offset="0" stop-color="#f9d9a6"/><stop offset="1" stop-color="#fbeed3"/>
  </linearGradient></defs><rect x="0" y="0" width="1200" height="1600" rx="0" fill="url(#sky)"/>
<circle cx="220" cy="260" r="116" fill="rgba(255,214,120,0.35)"/><circle cx="220" cy="260" r="90" fill="#ffd678"/>
<path d="M0 950 Q 360 790 744 950 T 1200 890 V1600 H0 Z" fill="#c9a45c" /><path d="M0 1080 Q 504 910 1200 1060 V1600 H0 Z" fill="#a9713f" />
<g transform="translate(620 880) scale(1)"><rect x="-170" y="0" width="340" height="200" rx="12" fill="#e8c9a0"/><polygon points="-200,0 0,-160 200,0" fill="#9c3d54"/><rect x="-50" y="80" width="100" height="120" rx="12" fill="#6d4a30"/><rect x="-140" y="50" width="70" height="70" rx="10" fill="#aee3f2"/><rect x="70" y="50" width="70" height="70" rx="10" fill="#aee3f2"/><path d="M-140 85 h70 M-105 50 v70 M70 85 h70 M105 50 v70" fill="none" stroke="#6d4a30" stroke-width="6"/><rect x="90" y="-150" width="34" height="80" rx="6" fill="#7a5236"/></g>
<g transform="translate(280 1340) scale(1.15 1.15)"><polygon points="-58,120 58,120 30,6 -30,6" fill="#c96f4a"/><circle cx="0" cy="-40" r="46" fill="#f6d7b8"/><path d="M-46 -52 Q-52 -100 0 -100 Q52 -100 46 -52 Q46 -28 34 -50 Q10 -74 -20 -58 Q-40 -44 -46 -52 Z" fill="#f2c14e" /><circle cx="-34" cy="-20" r="16" fill="#f2c14e"/><circle cx="34" cy="-20" r="16" fill="#f2c14e"/><circle cx="-14" cy="-42" r="5" fill="#4a3221"/><circle cx="14" cy="-42" r="5" fill="#4a3221"/><path d="M-10 -22 Q0 -14 10 -22" fill="none" stroke="#a65b3a" stroke-width="4" stroke-linecap="round"/><ellipse cx="-52" cy="40" rx="12" ry="40" fill="#f6d7b8"/><ellipse cx="52" cy="40" rx="12" ry="40" fill="#f6d7b8"/><ellipse cx="-26" cy="128" rx="18" ry="10" fill="#7a5236"/><ellipse cx="26" cy="128" rx="18" ry="10" fill="#7a5236"/></g>
<g transform="translate(920 1330) scale(0.85)"><ellipse cx="0" cy="60" rx="84" ry="96" fill="#a9713f"/><circle cx="0" cy="-52" r="66" fill="#a9713f"/><circle cx="-48" cy="-96" r="24" fill="#a9713f"/><circle cx="48" cy="-96" r="24" fill="#a9713f"/><circle cx="-48" cy="-96" r="12" fill="#d9a86f"/><circle cx="48" cy="-96" r="12" fill="#d9a86f"/><ellipse cx="0" cy="-32" rx="30" ry="22" fill="#d9a86f"/><circle cx="0" cy="-42" r="9" fill="#4a3221"/><circle cx="-22" cy="-62" r="7" fill="#3a281c"/><circle cx="22" cy="-62" r="7" fill="#3a281c"/><path d="M-12 -22 Q0 -12 12 -22" fill="none" stroke="#4a3221" stroke-width="5" stroke-linecap="round"/><ellipse cx="-80" cy="40" rx="20" ry="46" fill="#a9713f"/><ellipse cx="80" cy="40" rx="20" ry="46" fill="#a9713f"/><ellipse cx="-38" cy="148" rx="26" ry="18" fill="#a9713f"/><ellipse cx="38" cy="148" rx="26" ry="18" fill="#a9713f"/></g>
<g transform="translate(1060 1400) scale(0.6)"><ellipse cx="0" cy="60" rx="84" ry="96" fill="#c98d54"/><circle cx="0" cy="-52" r="66" fill="#c98d54"/><circle cx="-48" cy="-96" r="24" fill="#c98d54"/><circle cx="48" cy="-96" r="24" fill="#c98d54"/><circle cx="-48" cy="-96" r="12" fill="#d9a86f"/><circle cx="48" cy="-96" r="12" fill="#d9a86f"/><ellipse cx="0" cy="-32" rx="30" ry="22" fill="#d9a86f"/><circle cx="0" cy="-42" r="9" fill="#4a3221"/><circle cx="-22" cy="-62" r="7" fill="#3a281c"/><circle cx="22" cy="-62" r="7" fill="#3a281c"/><path d="M-12 -22 Q0 -12 12 -22" fill="none" stroke="#4a3221" stroke-width="5" stroke-linecap="round"/><ellipse cx="-80" cy="40" rx="20" ry="46" fill="#c98d54"/><ellipse cx="80" cy="40" rx="20" ry="46" fill="#c98d54"/><ellipse cx="-38" cy="148" rx="26" ry="18" fill="#c98d54"/><ellipse cx="38" cy="148" rx="26" ry="18" fill="#c98d54"/></g>
<rect x="80" y="120" width="1040" height="240" rx="32" fill="rgba(255,250,241,0.94)"/>
<text x="600" y="225" text-anchor="middle" font-family="'Baloo 2', 'Trebuchet MS', sans-serif" font-weight="800" font-size="86" fill="#2c2547">Goldilocks and the</text>
<text x="600" y="315" text-anchor="middle" font-family="'Baloo 2', 'Trebuchet MS', sans-serif" font-weight="800" font-size="86" fill="#2c2547">Three Bears</text>
</svg>
