<?xml version="1.0" encoding="UTF-8"?>
<svg xmlns="http://www.w3.org/2000/svg" viewBox="0 0 1200 1600" role="img">
<rect x="0" y="0" width="1200" height="1600" rx="0" fill="#aee3f2"/>
<defs><linearGradient id="sky" x1="0" y1="0" x2="0" y2="1">
  <stop offset="0" stop-color="#aee3f2"/><stop offset="1" stop-color="#e8f7fb"/>
  </linearGradient></defs><rect x="0" y="0" width="1200" height="1600" rx="0" fill="url(#sky)"/>
<circle cx="980" cy="220" r="126" fill="rgba(255,214,120,0.35)"/><circle cx="980" cy="220" r="100" fill="#ffd678"/>
<g transform="translate(240 260) scale(1.1)"><ellipse cx="0" cy="0" rx="110" ry="46" fill="#ffffff"/><ellipse cx="-70" cy="14" rx="70" ry="34" fill="#ffffff"/><ellipse cx="80" cy="12" rx="80" ry="36" fill="#ffffff"/></g>
<path d="M0 950 Q 360 790 744 950 T 1200 890 V1600 H0 Z" fill="#8fb97f" /><path d="M0 1080 Q 504 910 1200 1060 V1600 H0 Z" fill="#5d8f57" />
<g transform="translate(600 1030) scale(0.7)"><rect x="-150" y="0" width="300" height="170" rx="8" fill="#c96f4a"/><path d="M-150 45 h300 M-150 105 h300 M-75 0 v45 M75 0 v45 M-115 45 v60 M35 45 v60 M-35 105 v60 M115 105 v60" fill="none" stroke="#a4562e" stroke-width="6"/><polygon points="-180,0 0,-140 180,0" fill="#8a4510"/><rect x="-40" y="60" width="80" height="110" rx="10" fill="#5c3a2e"/><circle cx="20" cy="118" r="7" fill="#ffd678"/></g>
<g transform="translate(320 1330) scale(1.05 1.05)"><ellipse cx="0" cy="40" rx="78" ry="84" fill="#7fb3d5"/><circle cx="0" cy="-46" r="62" fill="#f4a9b8"/><polygon points="-52,-84 -26,-108 -22,-70" fill="#f4a9b8"/><polygon points="52,-84 26,-108 22,-70" fill="#f4a9b8"/><polygon points="-46,-84 -30,-98 -28,-76" fill="#e58ba2"/><polygon points="46,-84 30,-98 28,-76" fill="#e58ba2"/><ellipse cx="0" cy="-34" rx="26" ry="18" fill="#e58ba2"/><circle cx="-9" cy="-36" r="4" fill="#5c3a44"/><circle cx="9" cy="-36" r="4" fill="#5c3a44"/><circle cx="-24" cy="-56" r="7" fill="#3b2f45"/><circle cx="24" cy="-56" r="7" fill="#3b2f45"/><path d="M-16 -14 Q0 -2 16 -14" fill="none" stroke="#5c3a44" stroke-width="5" stroke-linecap="round"/><ellipse cx="-72" cy="26" rx="18" ry="40" fill="#f4a9b8"/><ellipse cx="72" cy="26" rx="18" ry="40" fill="#f4a9b8"/><ellipse cx="-34" cy="122" rx="20" ry="16" fill="#e58ba2"/><ellipse cx="34" cy="122" rx="20" ry="16" fill="#e58ba2"/></g>
<g transform="translate(600 1360) scale(-0.95 0.95)"><ellipse cx="0" cy="40" rx="78" ry="84" fill="#7fb3d5"/><circle cx="0" cy="-46" r="62" fill="#f4a9b8"/><polygon points="-52,-84 -26,-108 -22,-70" fill="#f4a9b8"/><polygon points="52,-84 26,-108 22,-70" fill="#f4a9b8"/><polygon points="-46,-84 -30,-98 -28,-76" fill="#e58ba2"/><polygon points="46,-84 30,-98 28,-76" fill="#e58ba2"/><ellipse cx="0" cy="-34" rx="26" ry="18" fill="#e58ba2"/><circle cx="-9" cy="-36" r="4" fill="#5c3a44"/><circle cx="9" cy="-36" r="4" fill="#5c3a44"/><circle cx="-24" cy="-56" r="7" fill="#3b2f45"/><circle cx="24" cy="-56" r="7" fill="#3b2f45"/><path d="M-16 -14 Q0 -2 16 -14" fill="none" stroke="#5c3a44" stroke-width="5" stroke-linecap="round"/><ellipse cx="-72" cy="26" rx="18" ry="40" fill="#f4a9b8"/><ellipse cx="72" cy="26" rx="18" ry="40" fill="#f4a9b8"/><ellipse cx="-34" cy="122" rx="20" ry="16" fill="#e58ba2"/><ellipse cx="34" cy="122" rx="20" ry="16" fill="#e58ba2"/></g>
<g transform="translate(880 1330) scale(1 1)"><ellipse cx="0" cy="40" rx="78" ry="84" fill="#7fb3d5"/><circle cx="0" cy="-46" r="62" fill="#f4a9b8"/><polygon points="-52,-84 -26,-108 -22,-70" fill="#f4a9b8"/><polygon points="52,-84 26,-108 22,-70" fill="#f4a9b8"/><polygon points="-46,-84 -30,-98 -28,-76" fill="#e58ba2"/><polygon points="46,-84 30,-98 28,-76" fill="#e58ba2"/><ellipse cx="0" cy="-34" rx="26" ry="18" fill="#e58ba2"/><circle cx="-9" cy="-36" r="4" fill="#5c3a44"/><circle cx="9" cy="-36" r="4" fill="#5c3a44"/><circle cx="-24" cy="-56" r="7" fill="#3b2f45"/><circle cx="24" cy="-56" r="7" fill="#3b2f45"/><path d="M-16 -14 Q0 -2 16 -14" fill="none" stroke="#5c3a44" stroke-width="5" stroke-linecap="round"/><ellipse cx="-72" cy="26" rx="18" ry="40" fill="#f4a9b8"/><ellipse cx="72" cy="26" rx="18" ry="40" fill="#f4a9b8"/><ellipse cx="-34" cy="122" rx="20" ry="16" fill="#e58ba2"/><ellipse cx="34" cy="122" rx="20" ry="16" fill="#e58ba2"/></g>
<path d="M180 1500 q6 -34 14 0 q8 -26 16 0 q8 -34 16 0 z" fill="#5d8f57" />
<path d="M1000 1480 q6 -34 14 0 q8 -26 16 0 q8 -34 16 0 z" fill="#5d8f57" />
<rect x="80" y="120" width="1040" height="240" rx="32" fill="rgba(255,250,241,0.94)"/>
<text x="600" y="225" text-anchor="middle" font-family="'Baloo 2', 'Trebuchet MS', sans-serif" font-weight="800" font-size="86" fill="#2c2547">The Three Little Pigs</text>
<text x="600" y="310" text-anchor="middle" font-family="'Nunito', sans-serif" font-size="44" fill="#57506e">A Storytime Library retelling</text>
</svg>
