<?xml version="1.0" encoding="UTF-8"?>
<svg xmlns="http://www.w3.org/2000/svg" viewBox="0 0 1200 1600" role="img">
<rect x="0" y="0" width="1200" height="1600" rx="0" fill="#faf3e7"/>
<defs><linearGradient id="sky" x1="0" y1="0" x2="0" y2="1">
  <stop offset="0" stop-color="#9fc7d8"/><stop offset="1" stop-color="#d8ecf2"/>
  </linearGradient></defs><rect x="0" y="0" width="1200" height="1600" rx="0" fill="url(#sky)"/>
<g transform="translate(300 260) scale(1.2)"><ellipse cx="0" cy="0" rx="110" ry="46" fill="#ffffff"/><ellipse cx="-70" cy="14" rx="70" ry="34" fill="#ffffff"/><ellipse cx="80" cy="12" rx="80" ry="36" fill="#ffffff"/></g>
<path d="M0 950 Q 360 790 744 950 T 1200 890 V1600 H0 Z" fill="#8fb97f" /><path d="M0 1080 Q 504 910 1200 1060 V1600 H0 Z" fill="#5d8f57" />
<g transform="translate(400 1050) scale(0.85)"><rect x="-150" y="0" width="300" height="170" rx="8" fill="#e8d089"/><path d="M-150 40 h300 M-150 90 h300 M-150 140 h300" fill="none" stroke="#d4b34e" stroke-width="6"/><polygon points="-180,0 0,-140 180,0" fill="#d4b34e"/><rect x="-40" y="60" width="80" height="110" rx="10" fill="#5c3a2e"/><circle cx="20" cy="118" r="7" fill="#ffd678"/></g>
<g transform="translate(880 1300) scale(-1.2 1.2)"><ellipse cx="0" cy="60" rx="74" ry="92" fill="#8b93ad"/><ellipse cx="0" cy="130" rx="60" ry="24" fill="#6f7791"/><circle cx="0" cy="-50" r="60" fill="#9aa2bc"/><polygon points="-54,-86 -34,-136 -16,-80" fill="#8b93ad"/><polygon points="54,-86 34,-136 16,-80" fill="#8b93ad"/><ellipse cx="30" cy="-30" rx="40" ry="26" fill="#c7ccdd"/><circle cx="64" cy="-34" r="10" fill="#3b3f52"/><circle cx="-16" cy="-62" r="8" fill="#2f3242"/><circle cx="20" cy="-62" r="8" fill="#2f3242"/><circle cx="-13" cy="-64" r="3" fill="#fff"/><circle cx="23" cy="-64" r="3" fill="#fff"/><path d="M6 -12 Q26 0 52 -14" fill="none" stroke="#3b3f52" stroke-width="5" stroke-linecap="round"/><path d="M-70 90 q-70 10 -60 70 q50 6 74 -34 z" fill="#8b93ad" /></g>
<path d="M690 1210 q-60 -40 -130 -30 M690 1260 q-70 -20 -140 0" fill="none" stroke="#c7ccdd" stroke-width="12" stroke-linecap="round"/>
</svg>
