<?xml version="1.0" encoding="UTF-8"?>
<svg xmlns="http://www.w3.org/2000/svg" viewBox="0 0 1200 1600" role="img">
<rect x="0" y="0" width="1200" height="1600" rx="0" fill="#faf3e7"/>
<defs><linearGradient id="sky" x1="0" y1="0" x2="0" y2="1">
  <stop offset="0" stop-color="#aee3f2"/><stop offset="1" stop-color="#e8f7fb"/>
  </linearGradient></defs><rect x="0" y="0" width="1200" height="1600" rx="0" fill="url(#sky)"/>
<circle cx="980" cy="220" r="126" fill="rgba(255,214,120,0.35)"/><circle cx="980" cy="220" r="100" fill="#ffd678"/>
<g transform="translate(880 240) scale(1)"><ellipse cx="0" cy="0" rx="110" ry="46" fill="#ffffff"/><ellipse cx="-70" cy="14" rx="70" ry="34" fill="#ffffff"/><ellipse cx="80" cy="12" rx="80" ry="36" fill="#ffffff"/></g>
<path d="M0 950 Q 360 790 744 950 T 1200 890 V1600 H0 Z" fill="#c9c25c" /><path d="M0 1080 Q 504 910 1200 1060 V1600 H0 Z" fill="#a9a13f" />
<g transform="translate(300 1300) scale(1.1 1.1)"><ellipse cx="0" cy="40" rx="82" ry="62" fill="#e8e2d6"/><rect x="-64" y="74" width="18" height="60" rx="8" fill="#e8e2d6"/><rect x="46" y="74" width="18" height="60" rx="8" fill="#e8e2d6"/><circle cx="64" cy="-30" r="44" fill="#e8e2d6"/><path d="M52 -66 q-4 -42 26 -50 q6 26 -10 52 z" fill="#cbb9a2" /><path d="M84 -62 q18 -38 44 -34 q0 28 -30 44 z" fill="#cbb9a2" /><polygon points="36,-44 18,-66 40,-60" fill="#e8e2d6"/><circle cx="56" cy="-36" r="6" fill="#3a3630"/><circle cx="84" cy="-36" r="6" fill="#3a3630"/><ellipse cx="78" cy="-6" rx="20" ry="14" fill="#d9cbb8"/><path d="M70 8 q10 20 2 30" fill="none" stroke="#cbb9a2" stroke-width="10" stroke-linecap="round"/><path d="M-78 20 q-24 6 -20 30" fill="none" stroke="#e8e2d6" stroke-width="14" stroke-linecap="round"/></g>
<g transform="translate(620 1330) scale(0.9 0.9)"><ellipse cx="0" cy="40" rx="82" ry="62" fill="#d9cbb8"/><rect x="-64" y="74" width="18" height="60" rx="8" fill="#d9cbb8"/><rect x="46" y="74" width="18" height="60" rx="8" fill="#d9cbb8"/><circle cx="64" cy="-30" r="44" fill="#d9cbb8"/><path d="M52 -66 q-4 -42 26 -50 q6 26 -10 52 z" fill="#cbb9a2" /><path d="M84 -62 q18 -38 44 -34 q0 28 -30 44 z" fill="#cbb9a2" /><polygon points="36,-44 18,-66 40,-60" fill="#d9cbb8"/><circle cx="56" cy="-36" r="6" fill="#3a3630"/><circle cx="84" cy="-36" r="6" fill="#3a3630"/><ellipse cx="78" cy="-6" rx="20" ry="14" fill="#d9cbb8"/><path d="M70 8 q10 20 2 30" fill="none" stroke="#cbb9a2" stroke-width="10" stroke-linecap="round"/><path d="M-78 20 q-24 6 -20 30" fill="none" stroke="#d9cbb8" stroke-width="14" stroke-linecap="round"/></g>
<g transform="translate(900 1360) scale(0.7 0.7)"><ellipse cx="0" cy="40" rx="82" ry="62" fill="#cbb9a2"/><rect x="-64" y="74" width="18" height="60" rx="8" fill="#cbb9a2"/><rect x="46" y="74" width="18" height="60" rx="8" fill="#cbb9a2"/><circle cx="64" cy="-30" r="44" fill="#cbb9a2"/><path d="M52 -66 q-4 -42 26 -50 q6 26 -10 52 z" fill="#cbb9a2" /><path d="M84 -62 q18 -38 44 -34 q0 28 -30 44 z" fill="#cbb9a2" /><polygon points="36,-44 18,-66 40,-60" fill="#cbb9a2"/><circle cx="56" cy="-36" r="6" fill="#3a3630"/><circle cx="84" cy="-36" r="6" fill="#3a3630"/><ellipse cx="78" cy="-6" rx="20" ry="14" fill="#d9cbb8"/><path d="M70 8 q10 20 2 30" fill="none" stroke="#cbb9a2" stroke-width="10" stroke-linecap="round"/><path d="M-78 20 q-24 6 -20 30" fill="none" stroke="#cbb9a2" stroke-width="14" stroke-linecap="round"/></g>
<path d="M180 1480 q6 -34 14 0 q8 -26 16 0 q8 -34 16 0 z" fill="#8a8430" />
<path d="M1040 1500 q6 -34 14 0 q8 -26 16 0 q8 -34 16 0 z" fill="#8a8430" />
</svg>
