<?xml version="1.0" encoding="UTF-8"?>
<svg xmlns="http://www.w3.org/2000/svg" viewBox="0 0 1200 1600" role="img">
<rect x="0" y="0" width="1200" height="1600" rx="0" fill="#faf3e7"/>
<defs><linearGradient id="nsky" x1="0" y1="0" x2="0" y2="1">
  <stop offset="0" stop-color="#2c2547"/><stop offset="1" stop-color="#4a3f78"/>
  </linearGradient></defs><rect x="0" y="0" width="1200" height="1600" rx="0" fill="url(#nsky)"/><circle cx="140" cy="180" r="6" fill="#f4edff"/><circle cx="340" cy="90" r="6" fill="#f4edff"/><circle cx="520" cy="220" r="6" fill="#f4edff"/><circle cx="760" cy="130" r="6" fill="#f4edff"/><circle cx="980" cy="200" r="6" fill="#f4edff"/><circle cx="1080" cy="340" r="6" fill="#f4edff"/><circle cx="220" cy="380" r="6" fill="#f4edff"/><circle cx="640" cy="320" r="6" fill="#f4edff"/><circle cx="880" cy="420" r="6" fill="#f4edff"/><circle cx="420" cy="460" r="6" fill="#f4edff"/><circle cx="120" cy="560" r="6" fill="#f4edff"/><circle cx="1020" cy="90" r="6" fill="#f4edff"/>
<circle cx="980" cy="200" r="90" fill="#f2b866"/><circle cx="1020.5" cy="173" r="73.8" fill="#0000"/><circle cx="1020.5" cy="174.8" r="72" fill="rgba(37,31,63,0)"/><circle cx="957.5" cy="218" r="12.600000000000001" fill="#e09b44"/><circle cx="998" cy="177.5" r="9" fill="#e09b44"/>
<path d="M0 950 Q 360 790 744 950 T 1200 890 V1600 H0 Z" fill="#57506e" /><path d="M0 1080 Q 504 910 1200 1060 V1600 H0 Z" fill="#3f3a58" />
<g transform="translate(320 980) scale(0.7)"><rect x="-170" y="0" width="340" height="200" rx="12" fill="#e8c9a0"/><polygon points="-200,0 0,-160 200,0" fill="#9c3d54"/><rect x="-50" y="80" width="100" height="120" rx="12" fill="#6d4a30"/><rect x="-140" y="50" width="70" height="70" rx="10" fill="#aee3f2"/><rect x="70" y="50" width="70" height="70" rx="10" fill="#aee3f2"/><path d="M-140 85 h70 M-105 50 v70 M70 85 h70 M105 50 v70" fill="none" stroke="#6d4a30" stroke-width="6"/><rect x="90" y="-150" width="34" height="80" rx="6" fill="#7a5236"/></g>
<g transform="translate(780 1270) scale(1.5 1.5)"><polygon points="-58,120 58,120 30,6 -30,6" fill="#c9a8e0"/><circle cx="0" cy="-40" r="46" fill="#f6d7b8"/><path d="M-46 -52 Q-52 -100 0 -100 Q52 -100 46 -52 Q46 -28 34 -50 Q10 -74 -20 -58 Q-40 -44 -46 -52 Z" fill="#b58a5e" /><circle cx="-34" cy="-20" r="16" fill="#b58a5e"/><circle cx="34" cy="-20" r="16" fill="#b58a5e"/><circle cx="-14" cy="-42" r="5" fill="#4a3221"/><circle cx="14" cy="-42" r="5" fill="#4a3221"/><path d="M-10 -22 Q0 -14 10 -22" fill="none" stroke="#a65b3a" stroke-width="4" stroke-linecap="round"/><ellipse cx="-52" cy="40" rx="12" ry="40" fill="#f6d7b8"/><ellipse cx="52" cy="40" rx="12" ry="40" fill="#f6d7b8"/><ellipse cx="-26" cy="128" rx="18" ry="10" fill="#7a5236"/><ellipse cx="26" cy="128" rx="18" ry="10" fill="#7a5236"/></g>
<circle cx="580" cy="1500" r="26" fill="#ffd678"/><circle cx="580" cy="1500" r="20" fill="#f2b866"/>
<circle cx="700" cy="1530" r="22" fill="#ffd678"/><circle cx="700" cy="1530" r="16" fill="#f2b866"/>
<g transform="translate(900 740) scale(2)"><polygon points="0,-22 6,-6 22,-6 9,4 14,20 0,10 -14,20 -9,4 -22,-6 -6,-6" fill="#ffd678"/></g>
</svg>
